<svg version="1.0" xmlns="http://www.w3.org/2000/svg" width="2133.333" height="2133.333" viewBox="0 0 1600 1600">
  <path d="M476.7 63.7c-.4.3-.7 14.7-.7 32V127h-63v63l-31.7.2-31.8.3-.3 349.2L349 889h-63v63l-31.7.2-31.8.3-.3 190.2-.2 190.3h-63v64H95v127h1143v-64h64v-63h63v-64h64v-63h63V825h-127V127h-63l-.2-31.8-.3-31.7-412.1-.3c-226.6-.1-412.4.1-412.7.5zm761.3 94.8V190l31.8.2 31.7.3.3 317.2.2 317.3h63v64h64v381h-64v63h-63v64h-64v63H159v-63h63v-64h1080V952H349v-63h889V190H476v-63h762v31.5zm-63 381V825H413V254h762v285.5zm63 603.5v127H286v-254h952v127z"/>
  <path d="M1302 920.5V952h63v-63h-63v31.5zM476.7 317.7c-.4.3-.7 100.5-.7 222.5V762h635V317H794.2c-174.3 0-317.2.3-317.5.7zM1048 539.5V698H540V381h508v158.5zM730 1111v32h254v63h64v-63h63v-64H730v32zM381 1174.5v31.5h63v-63h-63v31.5z"/>
</svg>
